<svg xmlns="http://www.w3.org/2000/svg" width="22" height="28" viewBox="0 0 22 28" fill="none">
    <path
        d="M0 12.3537C0.0895234 12.2489 0.202033 12.1676 0.328207 12.1165C0.454381 12.0653 0.590589 12.0458 0.725545 12.0596C1.18648 12.0596 1.64741 12.0596 2.10408 12.0596C2.81682 12.0596 2.95766 12.2089 2.95766 12.9683C2.95766 16.4629 2.95766 19.9588 2.95766 23.4563C2.95766 24.387 2.98754 24.4177 3.8966 24.4177C5.15137 24.4177 6.40613 24.4177 7.65663 24.4177C8.41632 24.4177 8.48461 24.3475 8.48461 23.588C8.48461 22.0866 8.48461 20.5808 8.48461 19.0794C8.48461 18.3945 8.62118 18.2496 9.29978 18.2452C10.9813 18.2452 12.6672 18.2452 14.3487 18.2233C15.4114 18.2233 16.4827 18.1662 17.5368 18.1443C17.9338 18.1443 18.113 17.9511 18.1087 17.5428C18.1087 16.5126 18.1087 15.4883 18.1087 14.4698C18.1087 13.7805 18.2496 13.6444 18.9282 13.6356C19.4019 13.6356 19.8799 13.6356 20.3537 13.6356C20.9597 13.6356 21.0749 13.7586 21.0749 14.3907C21.0749 17.1214 21.0749 19.8505 21.0749 22.5783C21.0749 23.9963 21.0749 25.4186 21.0749 26.841C21.0949 27.0008 21.0692 27.1631 21.001 27.3081C20.9328 27.4531 20.825 27.5745 20.6908 27.6576H18.5014C18.3676 27.5695 18.2604 27.4448 18.1918 27.2974C18.1232 27.15 18.0959 26.9859 18.113 26.8235C18.113 25.2606 18.113 23.6933 18.113 22.1261C18.113 21.5422 17.9764 21.4017 17.4088 21.3973C15.7016 21.3973 13.9518 21.3973 12.2233 21.3973C11.6044 21.3973 11.4551 21.5773 11.4508 22.2314C11.4508 23.7636 11.4508 25.3045 11.4508 26.8323C11.4703 26.9932 11.4445 27.1565 11.3764 27.3028C11.3083 27.4491 11.2008 27.5723 11.0667 27.6576C7.49018 27.6576 3.91794 27.6576 0.341433 27.6576C0.0554828 27.6576 0 27.6005 0 27.3064C0 22.3251 0 17.3409 0 12.3537Z"
        fill="#4053FF" />
    <path
        d="M10.0175 0C10.1925 0.162433 10.3803 0.316087 10.5467 0.49169C13.8501 3.88669 17.152 7.28316 20.4525 10.6811C20.5596 10.7787 20.6594 10.8844 20.7513 10.9972C20.9689 11.2957 20.875 11.5284 20.5123 11.5723C20.3545 11.5832 20.1963 11.5832 20.0385 11.5723H12.3179C11.5753 11.5723 11.5454 11.603 11.5454 12.3801C11.5454 13.539 11.5454 14.698 11.5454 15.857C11.5454 16.296 11.4046 16.4848 10.965 16.4716C10.2992 16.4716 9.63337 16.4716 8.96757 16.4716C8.62614 16.4716 8.47676 16.3224 8.47676 15.9712C8.47676 13.6839 8.47676 11.3967 8.47676 9.10944C8.47676 8.61336 8.68162 8.42897 9.20658 8.42897C10.5254 8.42897 11.8441 8.42897 13.1629 8.42897C13.3384 8.45568 13.5176 8.43604 13.6836 8.3719C13.6836 8.1524 13.5172 8.07338 13.4019 7.95484C12.4203 6.93049 11.433 5.90614 10.44 4.88178C9.97907 4.40765 9.90651 4.39887 9.43278 4.85544C8.10972 6.14613 6.82935 7.43681 5.50203 8.71433L4.2686 9.88209C4.21488 9.94249 4.1486 9.98964 4.07471 10.02C4.00082 10.0505 3.92121 10.0633 3.84181 10.0577C2.79191 9.96551 1.74627 10.0577 0.696364 10.0138C0.564058 10.0138 0.380538 10.0884 0.31652 9.91282C0.252501 9.73722 0.427485 9.69332 0.512843 9.60552L9.56081 0.316087C9.67178 0.201944 9.79982 0.105362 9.92359 0H10.0175Z"
        fill="#FFD43B" />
</svg>